<svg xmlns="http://www.w3.org/2000/svg" viewBox="0 0 512 512" role="img" aria-labelledby="title desc">
  <title id="title">SafeSend icon</title>
  <desc id="desc">Blue rounded wallet tile with SafeSend shield and check.</desc>
  <defs>
    <linearGradient id="bg" x1="64" y1="48" x2="448" y2="464" gradientUnits="userSpaceOnUse">
      <stop offset="0" stop-color="#0C78D7" />
      <stop offset="1" stop-color="#004A92" />
    </linearGradient>
  </defs>
  <rect x="32" y="32" width="448" height="448" rx="104" fill="url(#bg)" />
  <rect x="112" y="148" width="288" height="208" rx="52" fill="#F4F8FC" opacity="0.96" />
  <path d="M348 230h52a30 30 0 0 1 0 60h-52z" fill="#B8D8F5" />
  <circle cx="389" cy="260" r="15" fill="#005BAC" />
  <path d="M256 120c44 0 82 20 82 54v46c0 58-38 104-82 131-44-27-82-73-82-131v-46c0-34 38-54 82-54Z" fill="#00B26A" />
  <path d="m218 228 30 30 54-62" fill="none" stroke="#F4F8FC" stroke-linecap="round" stroke-linejoin="round" stroke-width="22" />
</svg>
